<svg xmlns="http://www.w3.org/2000/svg" viewBox="0 0 79.5 124.59"><defs><style>.cls-1{fill:#f9ca35;}.cls-2{fill:#e8af2e;}.cls-3{fill:#a6a8ab;}.cls-4{fill:#d0d2d3;}.cls-5,.cls-7{fill:none;stroke:#2b2b38;stroke-linecap:round;stroke-miterlimit:10;}.cls-5{stroke-width:2.18px;}.cls-6{fill:#2b2b38;}.cls-7{stroke-width:1.82px;}.cls-8{fill:#4b4b70;}</style></defs><g id="レイヤー_2" data-name="レイヤー 2"><g id="Capa_1" data-name="Capa 1"><path class="cls-1" d="M79.45,38.24A39.74,39.74,0,0,0,0,39.75C4.36,64.54,16.33,67.58,22.87,93.5c14.18,9.44,13.09,7.26,35.94,1.86C62.07,71.5,79.49,57.12,79.49,39.75A12.52,12.52,0,0,0,79.45,38.24Z"/><path class="cls-2" d="M79.49,39.75a12.52,12.52,0,0,0,0-1.51A39.74,39.74,0,0,0,40.92,0V99.67c3.93-.66,9.16-2.25,17.89-4.31C62.07,71.5,79.49,57.12,79.49,39.75Z"/><path class="cls-3" d="M27.18,105.49v12.27c0,3.77,2.44,6.83,5.46,6.83H49c3,0,5.46-3.06,5.46-6.83V105.49Z"/><path class="cls-4" d="M27.18,105.49v12.27c0,3.77,2.44,6.83,5.46,6.83h8.11v-19.1Z"/><path class="cls-3" d="M54.5,117.76V105.49H40.75v19.1H49C52.06,124.59,54.5,121.53,54.5,117.76Z"/><path class="cls-5" d="M21.78,47.3S29.32,64.59,31.59,71s2.34,21.74,2.34,21.74"/><path class="cls-5" d="M60.46,47.3S52.93,64.59,50.65,71s-2.34,21.74-2.34,21.74"/><path class="cls-6" d="M20.37,90.45v19.88a6.82,6.82,0,0,0,6.82,6.83H54.48a6.83,6.83,0,0,0,6.83-6.83V90.45Z"/><path class="cls-7" d="M33.19,53.62c0,2.87-1.78,5.2-4,5.2s-4-2.33-4-5.2,1.77-5.2,4-5.2S33.19,50.75,33.19,53.62Z"/><path class="cls-7" d="M41.12,53.62c0,2.87-1.78,5.2-4,5.2s-4-2.33-4-5.2,1.77-5.2,4-5.2S41.12,50.75,41.12,53.62Z"/><path class="cls-7" d="M49.05,53.62c0,2.87-1.78,5.2-4,5.2s-4-2.33-4-5.2,1.78-5.2,4-5.2S49.05,50.75,49.05,53.62Z"/><path class="cls-7" d="M57,53.62c0,2.87-1.78,5.2-4,5.2s-4-2.33-4-5.2,1.78-5.2,4-5.2S57,50.75,57,53.62Z"/><path class="cls-8" d="M62.7,96.44a1,1,0,0,1-.94,1h-42a1,1,0,0,1-.93-1v-1.7a1,1,0,0,1,.93-1h42a1,1,0,0,1,.94,1Z"/><path class="cls-8" d="M62.7,102.31a1,1,0,0,1-.94,1h-42a1,1,0,0,1-.93-1v-1.7a1,1,0,0,1,.93-1h42a1,1,0,0,1,.94,1Z"/><path class="cls-8" d="M62.79,108.18a1,1,0,0,1-.93,1h-42a1,1,0,0,1-.93-1v-1.7a1,1,0,0,1,.93-1h42a1,1,0,0,1,.93,1Z"/></g></g></svg>