<svg xmlns="http://www.w3.org/2000/svg" viewBox="0 0 111.32 128.51"><defs><style>.cls-1{fill:#d7df32;}.cls-2{fill:#931a3d;}.cls-3{fill:#f58b1f;}.cls-4{fill:#ee3e30;}.cls-5{fill:#ffc724;}</style></defs><g id="レイヤー_2" data-name="レイヤー 2"><g id="OBJECTS"><polygon class="cls-1" points="55.65 22.08 55.67 22.07 55.67 0 55.65 0.01 55.65 22.07 55.65 22.08"/><polygon class="cls-2" points="55.67 106.45 55.66 106.44 55.66 106.45 30.27 91.79 19.12 85.36 19.12 85.34 19.11 85.36 0.03 96.37 0.03 96.39 55.67 128.51 111.32 96.39 92.21 85.36 55.67 106.45"/><polygon class="cls-3" points="92.21 43.16 92.21 85.36 111.32 96.39 111.32 32.13 55.67 0 55.67 22.07 92.21 43.16"/><polygon class="cls-4" points="0.03 96.37 19.11 85.36 19.12 85.34 19.12 43.16 55.65 22.08 55.65 22.07 55.65 0.01 55.65 0 0 32.13 0 96.39 0.03 96.37"/><polygon class="cls-5" points="39.09 82.22 31.82 78.03 31.82 50.49 55.66 64.26 55.66 91.78 55.67 91.79 55.67 64.26 79.51 50.49 55.67 36.73 55.65 36.73 31.82 50.49 31.82 78.02 31.82 78.03 39.09 82.22"/><polygon class="cls-4" points="55.67 64.26 55.67 91.79 79.51 78.03 79.51 50.49 55.67 64.26"/><polygon class="cls-3" points="31.82 50.49 31.82 78.03 39.09 82.22 55.66 91.79 55.66 91.78 55.66 64.26 31.82 50.49"/></g></g></svg>