<?xml version="1.0" encoding="utf-8"?>
<!-- Generator: Adobe Illustrator 25.0.0, SVG Export Plug-In . SVG Version: 6.00 Build 0)  -->
<svg version="1.1" id="レイヤー_1" xmlns="http://www.w3.org/2000/svg" xmlns:xlink="http://www.w3.org/1999/xlink" x="0px"
	 y="0px" viewBox="0 0 596.9 667.9" style="enable-background:new 0 0 596.9 667.9;" xml:space="preserve">
<style type="text/css">
	.st0{fill-rule:evenodd;clip-rule:evenodd;fill:#18222C;}
	.st1{fill-rule:evenodd;clip-rule:evenodd;fill:#F7BD18;}
	.st2{fill-rule:evenodd;clip-rule:evenodd;fill:#FFFFFF;}
</style>
<g id="グループ_1">
	<g id="front">
		<g id="author">
			<text transform="matrix(1 0 0 1 -402.67 192.5673)" style="fill:#FFFFFF; font-family:'Montserrat-Bold'; font-size:41.667px;">Michal </text>
			
				<text transform="matrix(1 0 0 1 -247.0463 192.5673)" style="fill:#F7BD18; font-family:'Montserrat-Bold'; font-size:41.667px;">Hansen</text>
			<text transform="matrix(1 0 0 1 -400.671 233.5673)" style="fill:#FFFFFF; font-family:'Montserrat-Light'; font-size:25px;">ceo &amp; f</text>
			<text transform="matrix(1 0 0 1 -319.1723 233.5673)" style="font-family:'ArialMT'; font-size:25px;">ounder</text>
		</g>
	</g>
	<path id="長方形_1" class="st0" d="M-60.2-7.8h313v688h-313V-7.8z"/>
	<path id="Polygon_1" class="st1" d="M126,522.5L4.8-5.8l353,232L126,522.5z"/>
	<path class="st2" d="M0-6.7l602-1.5l-1.2,305.3L236,619.2L0-6.7z"/>
	<path id="Polygon_2" class="st1" d="M600.6,213l0.8,462.3H103.1L600.6,213z"/>
	<path id="Polygon_2_copy" class="st0" d="M442.8,542.2l158.8-148l0.2,148"/>
</g>
</svg>
